# xmcd
#
# Track frame offsets:
#	182
#	18220
#	38330
#	52852
#	68110
#	84407
#	101267
#	113437
#	127335
#	140007
#	152370
#	167962
#	182330
#
# Disc length: 2598 seconds
#
# Revision: 4
# Processed by: cddbd v1.5.2PL0 Copyright (c) Steve Scherf et al.
# Submitted via: EZCDAudioConverter 6.0.2.1
#
DISCID=940a240d
DTITLE=Various Artist - New Country II
DYEAR=1993
DGENRE=Country
TTITLE0=Vince Gill - Never Knew Lonely
TTITLE1=Hal Ketchum - Past the Point of Rescue
TTITLE2=Diamond Rio - Mirror, Mirror
TTITLE3=Holly Dunn - Heart Full of Love
TTITLE4=Lee Roy Parnell - What Kind of Fool Do You Think I Am?
TTITLE5=Little Texas - You and Forever and Me
TTITLE6=Dwight Yoakam - The Distance Between You and Me
TTITLE7=Mark Chesnutt - Brother Jukebox
TTITLE8=Confederate Railroad - She Took It Like a Man
TTITLE9=Joe Diffie - New Way (To Light Up an Old Flame)
TTITLE10=Ricky Van Shelton - I Am a Simple Man
TTITLE11=Michael White - Professional Fool
TTITLE12=Pam Tillis - Put Yourself in My Place
EXTD=
EXTT0=
EXTT1=
EXTT2=
EXTT3=
EXTT4=
EXTT5=
EXTT6=
EXTT7=
EXTT8=
EXTT9=
EXTT10=
EXTT11=
EXTT12=
PLAYORDER=
